<?xml version="1.0" encoding="UTF-8" standalone="no"?>
<!-- Created with Inkscape (http://www.inkscape.org/) -->

<svg
   width="180.45871mm"
   height="36.899227mm"
   viewBox="0 0 682.04869 139.46165"
   version="1.1"
   id="svg1"
   xml:space="preserve"
   inkscape:version="1.3 (0e150ed, 2023-07-21)"
   sodipodi:docname="logo_with_claim_inkscape.svg"
   xmlns:inkscape="http://www.inkscape.org/namespaces/inkscape"
   xmlns:sodipodi="http://sodipodi.sourceforge.net/DTD/sodipodi-0.dtd"
   xmlns="http://www.w3.org/2000/svg"
   xmlns:svg="http://www.w3.org/2000/svg"><sodipodi:namedview
     id="namedview1"
     pagecolor="#ffffff"
     bordercolor="#000000"
     borderopacity="0.25"
     inkscape:showpageshadow="2"
     inkscape:pageopacity="0.0"
     inkscape:pagecheckerboard="0"
     inkscape:deskcolor="#d1d1d1"
     inkscape:document-units="mm"
     showguides="true"
     inkscape:zoom="1.27673"
     inkscape:cx="280.01222"
     inkscape:cy="72.450714"
     inkscape:window-width="1800"
     inkscape:window-height="616"
     inkscape:window-x="0"
     inkscape:window-y="44"
     inkscape:window-maximized="0"
     inkscape:current-layer="g1"><sodipodi:guide
       position="512.87896,-15.977917"
       orientation="1,0"
       id="guide2"
       inkscape:locked="false" /><sodipodi:guide
       position="499.98464,1045.3853"
       orientation="0,-1"
       id="guide3"
       inkscape:locked="false" /><sodipodi:guide
       position="274.87096,100.88328"
       orientation="0,-1"
       id="guide4"
       inkscape:locked="false" /></sodipodi:namedview><defs
     id="defs1"><rect
       x="198.8515"
       y="321.72672"
       width="428.65631"
       height="44.085003"
       id="rect1" /><pattern
       id="EMFhbasepattern"
       patternUnits="userSpaceOnUse"
       width="6"
       height="6"
       x="0"
       y="0" /></defs><g
     inkscape:label="Ebene 1"
     inkscape:groupmode="layer"
     id="layer1"
     transform="translate(-67.492529,-109.52338)"><g
       id="g1"
       transform="matrix(0.43394316,0,0,0.43394316,76.617637,109.52338)"><path
         style="fill:#009ee3;fill-opacity:1;fill-rule:evenodd;stroke:none"
         d="M 1535,0.66666667 C 1533.3333,0.33333333 1531.3333,0 1529.6667,0 H 1274 c -9.6667,0 -18,6.3333333 -20.6667,15.666667 L 1217.3333,151 c -3,11.33333 3.6667,22.66667 15,26 1.6667,0.33333 3.6667,0.66667 5.3334,0.66667 h 255.6666 C 1503,177.66667 1511.3333,171 1514,162 l 36,-135.333333 c 3,-11.333334 -3.6667,-23.0000003 -15,-26.00000033 z"
         id="path1"
         sodipodi:nodetypes="csscccssccccc" /><text
         xml:space="preserve"
         transform="matrix(2.3044493,0,0,2.3044493,-111.44138,-475.89365)"
         id="text1"
         style="font-size:32px;line-height:0;letter-spacing:0.08px;word-spacing:0.21px;white-space:pre;shape-inside:url(#rect1);display:inline;fill:#000000"><tspan
           x="198.85156"
           y="330.92113"
           id="tspan5"><tspan
             dx="0 0 0 0 0 0 -0.20999816 0.20999329 0 0 -0.21000579 0.21000855 0 0 0 -0.20999816 0.21000855"
             style="font-weight:300;font-family:'E+H Sans';-inkscape-font-specification:'E+H Sans Light'"
             id="tspan1">People for Food Allocation</tspan></tspan></text><text
         xml:space="preserve"
         style="font-style:normal;font-variant:normal;font-weight:300;font-stretch:normal;font-size:159.775px;line-height:0;font-family:'E+H Sans';-inkscape-font-specification:'E+H Sans Light';letter-spacing:0.184356px;word-spacing:0.483934px;fill:#000000;stroke-width:2.30445"
         x="-33.900845"
         y="141.00635"
         id="text2"><tspan
           sodipodi:role="line"
           id="tspan2"
           style="font-style:normal;font-variant:normal;font-weight:600;font-stretch:normal;font-size:159.775px;font-family:'E+H Sans';-inkscape-font-specification:'E+H Sans Semi-Bold';stroke-width:2.30445"
           x="-33.900845"
           y="141.00635">Endless    Hungry</tspan></text><g
         style="fill:#ffffff;stroke:none"
         id="g3"
         transform="matrix(3.1118889,0,0,3.1118889,1296.5384,0.17484796)"><path
           d="M 57.178,26.494 57.15,26.49 C 57.139,26.488 57.129,26.481 57.118,26.48 L 51.777,25.778 51.775,15.324 c 0,-0.007 0.003,-0.016 0.003,-0.016 0,-0.018 -0.003,-0.028 -0.003,-0.04 v -0.025 c -10e-4,-0.031 -0.008,-0.06 -0.01,-0.091 -0.007,-0.11 -0.016,-0.22 -0.038,-0.328 C 51.722,14.8 51.713,14.776 51.708,14.752 51.681,14.633 51.648,14.515 51.603,14.398 51.599,14.389 51.594,14.38 51.591,14.371 49.952,10.237 37.54,7.523 25.89,7.523 13.386,7.524 0,10.649 0,15.301 c 0,0.015 0.004,0.03 0.004,0.044 L 0,33.524 c 0,4.321 11.907,8.111 25.481,8.111 l 0.53,-0.004 c 0.548,-0.006 0.988,-0.452 0.988,-1 v -6.728 c 1.079,0.359 2.654,0.887 4,1.34 v 8.281 c 0,0.234 0.082,0.461 0.231,0.641 l 5,6 c 0.01,0.012 0.026,0.016 0.036,0.028 0.011,0.012 0.016,0.029 0.027,0.041 0.057,0.056 0.128,0.089 0.195,0.13 0.038,0.023 0.069,0.055 0.11,0.073 0.125,0.055 0.26,0.088 0.4,0.088 0.002,0 0.003,0 0.005,0 8.113,-0.038 15.725,-0.986 20.36,-2.536 0.407,-0.136 0.683,-0.519 0.683,-0.948 V 27.485 c 0.002,-0.502 -0.37,-0.926 -0.868,-0.991 z m -19.68,2.469 -2.712,-3.134 11.076,1.194 0.007,0.001 h 10e-4 l 2.236,0.293 3.453,0.454 C 47.58,28.485 42.667,28.91 37.498,28.963 Z M 49.776,25.515 47,25.15 v -3.829 c 1.081,-0.434 2.021,-1.136 2.775,-1.955 z M 24.146,21.512 C 10.366,21.261 2.045,17.165 2.003,15.316 v -0.024 c 0.049,-2.026 9.932,-5.769 23.885,-5.769 11.22,0 19.805,2.42 22.764,4.409 0.035,0.024 0.074,0.048 0.108,0.072 0.034,0.024 0.063,0.047 0.095,0.071 0.491,0.362 0.796,0.708 0.889,1.021 0.009,0.033 0.012,0.064 0.017,0.096 0.005,0.03 0.012,0.06 0.013,0.088 v 0.038 c -0.016,0.745 -1.254,3.271 -3.507,4.168 l -24.555,-5.12 -0.21,-0.044 c -0.025,-0.005 -0.051,-10e-4 -0.076,-0.004 -0.324,-0.043 -0.636,0.074 -0.855,0.309 -0.034,0.036 -0.073,0.067 -0.102,0.109 -0.114,0.167 -0.173,0.36 -0.175,0.554 -0.002,0.193 0.052,0.388 0.162,0.557 z M 25,39.633 C 10.677,39.542 2,35.37 2,33.524 L 2.003,18.322 C 5.921,21.232 15.092,23.449 25,23.52 v 9.004 z m 2,-7.794 V 22.524 C 27,22.513 26.996,22.503 26.995,22.491 26.994,22.455 26.984,22.421 26.98,22.385 26.972,22.331 26.968,22.276 26.952,22.223 26.939,22.18 26.914,22.14 26.895,22.099 26.876,22.058 26.863,22.015 26.839,21.977 L 23.453,16.778 45,21.334 v 3.553 L 32.178,23.202 C 32.164,23.2 32.15,23.204 32.136,23.203 L 32.13,23.202 c -0.031,-0.004 -0.061,0.003 -0.092,10e-4 -0.048,-0.002 -0.096,-0.002 -0.144,0.002 -0.055,0.006 -0.107,0.018 -0.16,0.033 -0.028,0.008 -0.056,0.007 -0.084,0.017 -0.018,0.007 -0.032,0.02 -0.049,0.028 -0.048,0.021 -0.091,0.048 -0.136,0.076 -0.042,0.027 -0.082,0.053 -0.119,0.085 -0.037,0.032 -0.069,0.069 -0.101,0.107 -0.033,0.039 -0.064,0.077 -0.091,0.12 -0.01,0.017 -0.026,0.029 -0.035,0.046 -0.015,0.029 -0.019,0.06 -0.032,0.089 -0.02,0.046 -0.037,0.092 -0.05,0.141 -0.013,0.052 -0.019,0.102 -0.024,0.154 C 31.011,24.134 31,24.163 31,24.194 v 0.33 8.608 c -1.937,-0.649 -3.181,-1.06 -4,-1.293 z m 6,2.685 v -7.646 l 3,3.467 v 16.418 l -3,-3.601 z m 5,13.99 V 30.955 c 7.034,-0.104 13.595,-0.891 18.048,-2.152 V 46.308 C 51.753,47.604 45.139,48.414 38,48.514 Z"
           id="path1-6"
           style="fill:#ffffff;stroke:none" /></g><g
         style="fill:#000000"
         id="g4"
         transform="matrix(1.4355837,0,0,1.4355837,532.08034,42.615695)"><g
           id="g6">&#10;	<circle
   cx="32.924999"
   cy="40.379002"
   r="1"
   id="circle1" />&#10;	<circle
   cx="35.924999"
   cy="45.379002"
   r="1"
   id="circle2" />&#10;	<circle
   cx="34.924999"
   cy="34.379002"
   r="1"
   id="circle3" />&#10;	<path
   d="m 22.783,42.666 2.192,-2.048 c 0.584,-0.545 0.921,-1.288 0.947,-2.091 0.027,-0.802 -0.258,-1.565 -0.804,-2.149 L 23.07,34.186 c -1.13,-1.21 -3.032,-1.272 -4.24,-0.144 l -2.192,2.048 c -1.209,1.129 -1.273,3.031 -0.144,4.24 l 2.048,2.192 c 0.59,0.632 1.391,0.95 2.192,0.95 0.736,10e-4 1.472,-0.266 2.049,-0.806 z m -2.779,-1.509 -2.048,-2.192 c -0.376,-0.403 -0.354,-1.037 0.048,-1.414 l 2.192,-2.048 c 0.192,-0.18 0.438,-0.269 0.683,-0.269 0.268,0 0.534,0.106 0.731,0.316 l 2.048,2.192 c 0.181,0.193 0.275,0.448 0.267,0.717 -0.01,0.269 -0.121,0.517 -0.314,0.697 l -2.192,2.048 c -0.405,0.378 -1.037,0.356 -1.415,-0.047 z"
   id="path3" />&#10;	<path
   d="m 18.634,30.705 c 0.034,0.002 0.069,0.002 0.104,0.002 0.764,0 1.486,-0.283 2.045,-0.806 l 2.192,-2.048 c 1.209,-1.129 1.273,-3.031 0.144,-4.24 l -2.048,-2.192 c -1.129,-1.21 -3.032,-1.272 -4.24,-0.144 l -2.192,2.048 c -1.209,1.129 -1.273,3.031 -0.144,4.24 l 2.048,2.192 c 0.545,0.585 1.288,0.922 2.091,0.948 z m -2.63,-5.919 2.192,-2.048 c 0.192,-0.18 0.438,-0.269 0.683,-0.269 0.268,0 0.534,0.106 0.731,0.316 l 2.048,2.192 c 0.376,0.403 0.354,1.037 -0.048,1.414 l -2.192,2.048 c -0.193,0.181 -0.448,0.272 -0.717,0.267 -0.269,-0.01 -0.517,-0.121 -0.697,-0.314 L 15.956,26.2 c -0.376,-0.403 -0.355,-1.037 0.048,-1.414 z"
   id="path4" />&#10;	<circle
   cx="19.924999"
   cy="48.472"
   r="1"
   id="circle4" />&#10;	<path
   d="M 42.667,16.934 C 42.709,15.868 42.47,14.818 41.957,13.848 41.6,13.174 41.199,12.532 40.764,11.921 L 41.858,9.065 39.991,8.35 39.305,10.142 C 36.137,6.773 31.69,4.795 26.925,4.795 c -6.313,0 -12.073,3.469 -15.032,9.053 -0.513,0.97 -0.753,2.02 -0.71,3.086 -0.265,0.108 -0.505,0.273 -0.693,0.498 -0.338,0.405 -0.479,0.935 -0.386,1.443 l 6.277,36.893 c 0.41,2.283 2.392,3.939 4.71,3.939 h 11.668 c 2.318,0 4.3,-1.656 4.711,-3.948 l 6.275,-36.874 c 0.094,-0.519 -0.047,-1.048 -0.385,-1.453 -0.188,-0.225 -0.428,-0.39 -0.693,-0.498 z m -2.478,-2.151 c 0.335,0.633 0.497,1.317 0.48,2.012 h -1.772 l 0.979,-2.556 c 0.106,0.18 0.215,0.358 0.313,0.544 z m -26.529,0 c 2.61,-4.927 7.693,-7.988 13.265,-7.988 4.54,0 8.756,2.034 11.573,5.453 l -1.741,4.547 H 13.18 c -0.017,-0.694 0.145,-1.378 0.48,-2.012 z M 35.5,55.414 c -0.238,1.328 -1.392,2.293 -2.741,2.293 H 21.091 c -1.35,0 -2.503,-0.965 -2.74,-2.284 L 12.119,18.795 H 35.992 L 31.784,29.781 C 31.655,29.359 31.441,28.957 31.12,28.613 l -2.048,-2.192 c -1.13,-1.21 -3.033,-1.272 -4.24,-0.144 l -2.192,2.048 c -1.209,1.129 -1.273,3.031 -0.144,4.24 l 2.048,2.192 c 0.545,0.584 1.288,0.921 2.091,0.947 0.034,0.002 0.069,0.002 0.104,0.002 0.764,0 1.486,-0.283 2.045,-0.806 l 1.618,-1.511 -3.168,8.271 c -0.189,0.182 -4.628,12.085 -4.628,12.085 -0.179,-0.168 -0.416,-0.275 -0.68,-0.275 -0.552,0 -1,0.448 -1,1 0,0.552 0.448,1 1,1 0.089,0 0.17,-0.029 0.252,-0.051 l 1.681,0.644 1.198,-3.128 c 0.12,0.222 0.258,0.437 0.439,0.629 l 2.048,2.192 c 0.545,0.584 1.288,0.921 2.091,0.947 0.034,0.002 0.069,0.002 0.104,0.002 0.764,0 1.486,-0.283 2.045,-0.806 l 2.192,-2.048 c 1.209,-1.129 1.273,-3.031 0.144,-4.24 l -2.048,-2.192 c -1.129,-1.21 -3.032,-1.272 -4.24,-0.144 l -0.946,0.883 c 0,0 5.011,-12.948 4.99,-13.028 l 6.257,-16.337 h 3.6 z m -5.89,-24.021 -2.192,2.048 c -0.194,0.181 -0.443,0.268 -0.717,0.267 -0.269,-0.01 -0.517,-0.121 -0.697,-0.314 L 23.956,31.2 c -0.376,-0.403 -0.354,-1.037 0.048,-1.414 l 2.192,-2.048 c 0.192,-0.18 0.438,-0.269 0.683,-0.269 0.268,0 0.534,0.106 0.731,0.316 l 2.048,2.192 c 0.376,0.405 0.355,1.039 -0.048,1.416 z m -2.606,19.393 2.192,-2.048 c 0.192,-0.18 0.438,-0.269 0.683,-0.269 0.268,0 0.534,0.106 0.731,0.316 l 2.048,2.192 c 0.376,0.403 0.354,1.037 -0.048,1.414 l -2.192,2.048 c -0.194,0.181 -0.444,0.272 -0.717,0.267 -0.269,-0.01 -0.517,-0.121 -0.697,-0.314 L 26.956,52.2 c -0.376,-0.403 -0.355,-1.037 0.048,-1.414 z"
   id="path5" />&#10;	<path
   d="m 41.631,5.999 2,2 -1.414,1.414 -2,-2 z m 2.587,1.416 -2,-2 1.414,-1.414 2,2 z m 2,-2 -2,-2 1.414,-1.414 2,2 z M 46.217,1.414 47.631,0 l 2,2 -1.414,1.414 z"
   id="path6" />&#10;</g></g></g></g></svg>
